<svg width="100" height="100" viewBox="0 0 100 100" fill="none"
  xmlns="http://www.w3.org/2000/svg">
  <rect width="100" height="100" rx="50" fill="#A65E09"/>
  <path d="M50 89.5833C71.8604 89.5833 89.5833 71.8604 89.5833 50C89.5833 28.1396 71.8604 10.4167 50 10.4167C28.1396 10.4167 10.4167 28.1396 10.4167 50C10.4167 71.8604 28.1396 89.5833 50 89.5833ZM50 93.75C25.8375 93.75 6.25 74.1625 6.25 50C6.25 25.8375 25.8375 6.25 50 6.25C74.1625 6.25 93.75 25.8375 93.75 50C93.75 74.1625 74.1625 93.75 50 93.75Z" fill="#D6CCC2"/>
  <path fill-rule="evenodd" clip-rule="evenodd" d="M32.0123 17.0001C31.4736 16.9942 30.97 17.2755 30.6948 17.7442C30.4255 18.213 30.4255 18.7872 30.6948 19.2559C30.97 19.7247 31.4736 20.0059 32.0123 20.0001H35.0747C35.3908 26.2169 37.6042 30.336 39.9053 32.8262C40.1278 33.0723 40.3562 33.2833 40.5846 33.5001H27.5154C26.9767 33.4942 26.4731 33.7755 26.1979 34.2442C25.9286 34.713 25.9286 35.2872 26.1979 35.7559C26.4731 36.2247 26.9767 36.5059 27.5154 36.5001H30.5777C30.9056 44.9551 33.8684 50.2579 36.9484 53.334C37.3817 53.7676 37.815 54.1485 38.2424 54.5H21.5195C20.9808 54.4942 20.4772 54.7754 20.202 55.2442C19.9327 55.7129 19.9327 56.2871 20.202 56.7559C20.4772 57.2246 20.9808 57.5059 21.5195 57.5H26.0515C26.3911 68.8613 30.5367 75.3711 34.8053 78.875C39.2671 82.5371 43.8636 82.9941 43.8636 82.9941C43.9104 83 43.9573 83 44.0041 83H55.9959C56.0427 83 56.0837 83 56.1306 82.9941C56.1306 82.9941 60.727 82.5781 65.1888 78.9277C69.4633 75.4356 73.6147 68.9199 73.9543 57.5H78.4805C79.0192 57.5059 79.5228 57.2246 79.798 56.7559C80.0673 56.2871 80.0673 55.7129 79.798 55.2442C79.5228 54.7754 79.0192 54.4942 78.4805 54.5H61.7576C62.185 54.1485 62.6183 53.7676 63.0516 53.334C66.1316 50.2579 69.0944 44.9551 69.4223 36.5001H72.4846C73.0233 36.5059 73.5269 36.2247 73.8021 35.7559C74.0714 35.2872 74.0714 34.713 73.8021 34.2442C73.5269 33.7755 73.0233 33.4942 72.4846 33.5001H59.4447C59.6614 33.295 59.878 33.0958 60.0947 32.8673C62.3958 30.377 64.6092 26.2579 64.9253 20.0001H67.9877C68.5264 20.0059 69.03 19.7247 69.3052 19.2559C69.5745 18.7872 69.5745 18.213 69.3052 17.7442C69.03 17.2755 68.5264 16.9942 67.9877 17.0001H32.0123Z" fill="#D6CCC2"/>
</svg>
