<svg width="150" height="150" viewBox="0 0 150 150" fill="none"
  xmlns="http://www.w3.org/2000/svg">
  <rect width="150" height="150" fill="#A65E09"/>
  <path d="M50.572 144.54L40.528 135.468L41.302 135.9L41.356 144H38.71V130.23H38.818L48.646 139.266L48.07 139.014L48.016 130.752H50.644V144.54H50.572ZM57.5117 144.216C56.5517 144.216 55.7357 144.036 55.0637 143.676C54.4037 143.316 53.8997 142.818 53.5517 142.182C53.2037 141.546 53.0297 140.814 53.0297 139.986C53.0297 139.194 53.2337 138.48 53.6417 137.844C54.0497 137.208 54.5957 136.704 55.2797 136.332C55.9637 135.948 56.7257 135.756 57.5657 135.756C58.6937 135.756 59.6177 136.086 60.3377 136.746C61.0697 137.394 61.5437 138.336 61.7597 139.572L55.6397 141.516L55.0817 140.148L59.5097 138.654L58.9877 138.888C58.8917 138.576 58.7177 138.306 58.4657 138.078C58.2257 137.838 57.8597 137.718 57.3677 137.718C56.9957 137.718 56.6657 137.808 56.3777 137.988C56.1017 138.156 55.8857 138.402 55.7297 138.726C55.5857 139.038 55.5137 139.41 55.5137 139.842C55.5137 140.334 55.6037 140.748 55.7837 141.084C55.9637 141.408 56.2097 141.654 56.5217 141.822C56.8337 141.99 57.1817 142.074 57.5657 142.074C57.8417 142.074 58.1057 142.026 58.3577 141.93C58.6217 141.834 58.8797 141.708 59.1317 141.552L60.2477 143.424C59.8277 143.664 59.3717 143.856 58.8797 144C58.3997 144.144 57.9437 144.216 57.5117 144.216ZM66.1469 144.162C65.4989 144.162 64.8929 144.048 64.3289 143.82C63.7769 143.592 63.3089 143.274 62.9249 142.866L63.9689 141.48C64.3529 141.828 64.7069 142.08 65.0309 142.236C65.3669 142.38 65.6669 142.452 65.9309 142.452C66.1349 142.452 66.3149 142.434 66.4709 142.398C66.6389 142.35 66.7709 142.284 66.8669 142.2C66.9629 142.104 67.0109 141.984 67.0109 141.84C67.0109 141.636 66.9269 141.474 66.7589 141.354C66.6029 141.234 66.3989 141.138 66.1469 141.066C65.8949 140.982 65.6249 140.898 65.3369 140.814C64.6169 140.586 64.0949 140.256 63.7709 139.824C63.4589 139.38 63.3029 138.9 63.3029 138.384C63.3029 137.988 63.4049 137.592 63.6089 137.196C63.8249 136.788 64.1609 136.452 64.6169 136.188C65.0849 135.912 65.6849 135.774 66.4169 135.774C67.0769 135.774 67.6349 135.84 68.0909 135.972C68.5469 136.104 68.9789 136.32 69.3869 136.62L68.4329 138.096C68.2049 137.916 67.9469 137.766 67.6589 137.646C67.3829 137.514 67.1249 137.442 66.8849 137.43C66.6689 137.418 66.4829 137.442 66.3269 137.502C66.1829 137.562 66.0689 137.64 65.9849 137.736C65.9009 137.832 65.8589 137.934 65.8589 138.042C65.8469 138.27 65.9309 138.45 66.1109 138.582C66.3029 138.714 66.5429 138.816 66.8309 138.888C67.1189 138.96 67.4009 139.044 67.6769 139.14C68.0609 139.26 68.3909 139.422 68.6669 139.626C68.9429 139.83 69.1529 140.076 69.2969 140.364C69.4529 140.64 69.5309 140.976 69.5309 141.372C69.5309 141.852 69.4049 142.308 69.1529 142.74C68.9129 143.16 68.5409 143.502 68.0369 143.766C67.5449 144.03 66.9149 144.162 66.1469 144.162ZM76.0697 130.752C77.1617 130.752 78.0857 130.938 78.8417 131.31C79.5977 131.67 80.1737 132.186 80.5697 132.858C80.9657 133.518 81.1637 134.304 81.1637 135.216C81.1637 135.756 81.0797 136.302 80.9117 136.854C80.7557 137.394 80.4977 137.886 80.1377 138.33C79.7897 138.774 79.3157 139.134 78.7157 139.41C78.1277 139.674 77.4017 139.806 76.5377 139.806H74.6657V144H72.0557V130.752H76.0697ZM76.5197 137.268C76.9157 137.268 77.2457 137.202 77.5097 137.07C77.7737 136.926 77.9777 136.752 78.1217 136.548C78.2777 136.332 78.3857 136.11 78.4457 135.882C78.5177 135.654 78.5537 135.456 78.5537 135.288C78.5537 135.156 78.5297 134.982 78.4817 134.766C78.4457 134.538 78.3617 134.31 78.2297 134.082C78.0977 133.854 77.8937 133.662 77.6177 133.506C77.3537 133.35 76.9937 133.272 76.5377 133.272H74.6657V137.268H76.5197ZM82.4731 139.968C82.4731 139.164 82.6591 138.444 83.0311 137.808C83.4151 137.172 83.9491 136.674 84.6331 136.314C85.3171 135.942 86.1031 135.756 86.9911 135.756C87.8911 135.756 88.6711 135.942 89.3311 136.314C89.9911 136.674 90.4951 137.172 90.8431 137.808C91.2031 138.444 91.3831 139.164 91.3831 139.968C91.3831 140.772 91.2031 141.498 90.8431 142.146C90.4951 142.782 89.9911 143.286 89.3311 143.658C88.6711 144.03 87.8791 144.216 86.9551 144.216C86.0911 144.216 85.3171 144.048 84.6331 143.712C83.9611 143.376 83.4331 142.89 83.0491 142.254C82.6651 141.618 82.4731 140.856 82.4731 139.968ZM85.0111 139.986C85.0111 140.394 85.0951 140.766 85.2631 141.102C85.4311 141.426 85.6591 141.684 85.9471 141.876C86.2351 142.068 86.5591 142.164 86.9191 142.164C87.3151 142.164 87.6571 142.068 87.9451 141.876C88.2331 141.684 88.4551 141.426 88.6111 141.102C88.7671 140.766 88.8451 140.394 88.8451 139.986C88.8451 139.566 88.7671 139.194 88.6111 138.87C88.4551 138.546 88.2331 138.288 87.9451 138.096C87.6571 137.904 87.3151 137.808 86.9191 137.808C86.5591 137.808 86.2351 137.904 85.9471 138.096C85.6591 138.288 85.4311 138.546 85.2631 138.87C85.0951 139.194 85.0111 139.566 85.0111 139.986ZM96.5723 144.216C95.8403 144.216 95.1863 144.048 94.6103 143.712C94.0343 143.364 93.5783 142.866 93.2423 142.218C92.9183 141.57 92.7563 140.802 92.7563 139.914C92.7563 139.026 92.9363 138.27 93.2963 137.646C93.6563 137.022 94.1483 136.548 94.7723 136.224C95.3963 135.9 96.1043 135.738 96.8963 135.738C97.4003 135.738 97.8803 135.816 98.3363 135.972C98.8043 136.128 99.1943 136.368 99.5063 136.692V137.484V129.798H102.008V144H99.4883V142.47L99.6863 143.01C99.2783 143.346 98.8223 143.634 98.3183 143.874C97.8143 144.102 97.2323 144.216 96.5723 144.216ZM97.4003 142.092C97.7363 142.092 98.0303 142.05 98.2823 141.966C98.5463 141.87 98.7743 141.738 98.9663 141.57C99.1703 141.39 99.3443 141.168 99.4883 140.904V138.978C99.3923 138.714 99.2423 138.492 99.0383 138.312C98.8463 138.12 98.6063 137.976 98.3183 137.88C98.0423 137.772 97.7363 137.718 97.4003 137.718C97.0283 137.718 96.6803 137.814 96.3563 138.006C96.0443 138.186 95.7923 138.438 95.6003 138.762C95.4083 139.086 95.3123 139.458 95.3123 139.878C95.3123 140.298 95.4083 140.676 95.6003 141.012C95.7923 141.348 96.0443 141.612 96.3563 141.804C96.6803 141.996 97.0283 142.092 97.4003 142.092ZM107.157 144.162C106.509 144.162 105.903 144.048 105.339 143.82C104.787 143.592 104.319 143.274 103.935 142.866L104.979 141.48C105.363 141.828 105.717 142.08 106.041 142.236C106.377 142.38 106.677 142.452 106.941 142.452C107.145 142.452 107.325 142.434 107.481 142.398C107.649 142.35 107.781 142.284 107.877 142.2C107.973 142.104 108.021 141.984 108.021 141.84C108.021 141.636 107.937 141.474 107.769 141.354C107.613 141.234 107.409 141.138 107.157 141.066C106.905 140.982 106.635 140.898 106.347 140.814C105.627 140.586 105.105 140.256 104.781 139.824C104.469 139.38 104.313 138.9 104.313 138.384C104.313 137.988 104.415 137.592 104.619 137.196C104.835 136.788 105.171 136.452 105.627 136.188C106.095 135.912 106.695 135.774 107.427 135.774C108.087 135.774 108.645 135.84 109.101 135.972C109.557 136.104 109.989 136.32 110.397 136.62L109.443 138.096C109.215 137.916 108.957 137.766 108.669 137.646C108.393 137.514 108.135 137.442 107.895 137.43C107.679 137.418 107.493 137.442 107.337 137.502C107.193 137.562 107.079 137.64 106.995 137.736C106.911 137.832 106.869 137.934 106.869 138.042C106.857 138.27 106.941 138.45 107.121 138.582C107.313 138.714 107.553 138.816 107.841 138.888C108.129 138.96 108.411 139.044 108.687 139.14C109.071 139.26 109.401 139.422 109.677 139.626C109.953 139.83 110.163 140.076 110.307 140.364C110.463 140.64 110.541 140.976 110.541 141.372C110.541 141.852 110.415 142.308 110.163 142.74C109.923 143.16 109.551 143.502 109.047 143.766C108.555 144.03 107.925 144.162 107.157 144.162Z" fill="#403121"/>
  <path d="M75 112.5C101.233 112.5 122.5 91.2325 122.5 65C122.5 38.7675 101.233 17.5 75 17.5C48.7675 17.5 27.5 38.7675 27.5 65C27.5 91.2325 48.7675 112.5 75 112.5ZM75 117.5C46.005 117.5 22.5 93.995 22.5 65C22.5 36.005 46.005 12.5 75 12.5C103.995 12.5 127.5 36.005 127.5 65C127.5 93.995 103.995 117.5 75 117.5Z" fill="#403121"/>
  <path d="M75 120C105.375 120 130 95.375 130 65C130 34.625 105.375 10 75 10C44.625 10 20 34.625 20 65C20 95.375 44.625 120 75 120ZM75 125C41.8625 125 15 98.1375 15 65C15 31.8625 41.8625 5 75 5C108.138 5 135 31.8625 135 65C135 98.1375 108.138 125 75 125Z" fill="#403121"/>
  <path fill-rule="evenodd" clip-rule="evenodd" d="M53.4148 25.4001C52.7683 25.3931 52.164 25.7306 51.8338 26.2931C51.5106 26.8556 51.5106 27.5446 51.8338 28.1071C52.164 28.6696 52.7683 29.0071 53.4148 29.0001H57.0896C57.469 36.4602 60.125 41.4032 62.8864 44.3915C63.1534 44.6868 63.4274 44.9399 63.7015 45.2001H48.0184C47.372 45.1931 46.7677 45.5305 46.4375 46.093C46.1143 46.6555 46.1143 47.3446 46.4375 47.9071C46.7677 48.4696 47.372 48.8071 48.0184 48.8001H51.6933C52.0868 58.9462 55.6421 65.3094 59.3381 69.0008C59.858 69.5211 60.378 69.9782 60.8909 70.4H40.8234C40.1769 70.393 39.5727 70.7305 39.2424 71.293C38.9192 71.8555 38.9192 72.5446 39.2424 73.1071C39.5727 73.6696 40.1769 74.0071 40.8234 74H46.2618C46.6694 87.6336 51.6441 95.4453 56.7664 99.65C62.1205 104.045 67.6363 104.593 67.6363 104.593C67.6925 104.6 67.7487 104.6 67.8049 104.6H82.1951C82.2513 104.6 82.3005 104.6 82.3567 104.593C82.3567 104.593 87.8725 104.094 93.2266 99.7133C98.3559 95.5227 103.338 87.7039 103.745 74H109.177C109.823 74.0071 110.427 73.6696 110.758 73.1071C111.081 72.5446 111.081 71.8555 110.758 71.293C110.427 70.7305 109.823 70.393 109.177 70.4H89.1091C89.622 69.9782 90.142 69.5211 90.662 69.0008C94.3579 65.3094 97.9132 58.9462 98.3067 48.8001H101.982C102.628 48.8071 103.232 48.4696 103.563 47.9071C103.886 47.3446 103.886 46.6555 103.563 46.093C103.232 45.5305 102.628 45.1931 101.982 45.2001H86.3337C86.5936 44.954 86.8536 44.7149 87.1136 44.4407C89.875 41.4524 92.531 36.5095 92.9104 29.0001H96.5852C97.2317 29.0071 97.836 28.6696 98.1662 28.1071C98.4894 27.5446 98.4894 26.8556 98.1662 26.2931C97.836 25.7306 97.2317 25.3931 96.5852 25.4001H53.4148ZM60.7574 29.0001H89.2426C88.8632 35.5743 86.678 39.6102 84.4717 41.9938C82.2232 44.4266 80.2909 45.1087 80.0309 45.2001H69.9831C69.7161 45.1087 67.7838 44.3985 65.5284 41.9587C63.322 39.561 61.1368 35.5251 60.7574 29.0001ZM55.3611 48.8001H94.6389C94.2384 58.004 91.1819 63.3899 88.1184 66.4555C84.9565 69.6125 82.1037 70.3508 81.9 70.4H68.1C67.8963 70.3508 65.0435 69.6125 61.8816 66.4555C58.8181 63.3899 55.7616 58.004 55.3611 48.8001ZM49.9788 74H100.021C99.5996 86.6914 95.2713 93.3992 90.95 96.9289C86.432 100.62 82.1178 100.993 82.0686 101H67.9454C67.9033 100.993 63.575 100.585 59.057 96.8656C54.7287 93.3149 50.4004 86.6141 49.9788 74Z" fill="#403121"/>
</svg>
